<svg id="svg2" xmlns="http://www.w3.org/2000/svg" viewBox="0 0 61.2021 57.5161"><defs><style>.cls-1{fill:#2d5352;}</style></defs><title>entwicklertag-karlsruhe-logo-mini</title><g id="g10"><g id="g12"><path id="path14" class="cls-1" d="M0,38.2333H30.5933V30.5868H0v7.6465Z" transform="translate(0 0.0036)"/><path id="path16" class="cls-1" d="M0,22.94H30.5933V15.2918H0V22.94Z" transform="translate(0 0.0036)"/><path id="path18" class="cls-1" d="M0.0015-.0036V7.6429H42.0654V38.2337h7.6465V7.6429H61.1841V-0.0036H0.0015" transform="translate(0 0.0036)"/><path id="path20" class="cls-1" d="M0,44.8489H1.167v2.3018H1.19c0.1162-.2012.24-0.3862,0.356-0.5713l1.1816-1.7305H4.1724L2.4492,47.0657l1.8159,2.99H2.89l-1.2754-2.248-0.4478.5483v1.7H0V44.8489" transform="translate(0 0.0036)"/><path id="path22" class="cls-1" d="M7.8071,47.8382L7.4824,46.7337C7.39,46.4251,7.2969,46.0384,7.22,45.7288H7.2041c-0.0771.31-.1543,0.7031-0.2393,1.0049L6.6558,47.8382H7.8071Zm-1.3213.88L6.1152,50.0555H4.8945l1.5913-5.2066H8.0308l1.6147,5.2066H8.3784L7.9766,48.7186H6.4858" transform="translate(0 0.0036)"/><path id="path24" class="cls-1" d="M11.7671,47.1585H12.231a0.7917,0.7917,0,0,0,.934-0.75A0.73,0.73,0,0,0,12.3,45.6834a2.9282,2.9282,0,0,0-.5332.0386v1.4365Zm-1.1665-2.24A10.3143,10.3143,0,0,1,12.169,44.81a2.6586,2.6586,0,0,1,1.684.41,1.3211,1.3211,0,0,1,.4785,1.0894,1.3818,1.3818,0,0,1-.9189,1.2822v0.0234a1.311,1.311,0,0,1,.6947.9727c0.1626,0.5874.3252,1.2671,0.4254,1.4683H13.3276a6.4958,6.4958,0,0,1-.3632-1.2129,0.7965,0.7965,0,0,0-.8418-0.8345H11.7671v2.0474H10.6006V44.9183" transform="translate(0 0.0036)"/><path id="path26" class="cls-1" d="M15.5444,44.8489h1.1823v4.2178h2.07v0.9888H15.5444V44.8489" transform="translate(0 0.0036)"/><path id="path28" class="cls-1" d="M19.57,48.8426a3.0051,3.0051,0,0,0,1.3056.3247c0.54,0,.8261-0.2241.8261-0.564,0-.3247-0.247-0.51-0.8725-0.7344a1.5807,1.5807,0,1,1,.54-3.1054,3.1873,3.1873,0,0,1,1.3281.2632l-0.2628.95a2.4682,2.4682,0,0,0-1.0888-.248,0.6187,0.6187,0,0,0-.7574.5024c0,0.332.294,0.4795,0.9659,0.7344a1.6477,1.6477,0,0,1,1.352,1.5522c0,0.873-.6724,1.6147-2.1011,1.6147a3.4152,3.4152,0,0,1-1.4755-.3164l0.24-.9736" transform="translate(0 0.0036)"/><path id="path30" class="cls-1" d="M25.1763,47.1585H25.64a0.792,0.792,0,0,0,.9346-0.75,0.73,0.73,0,0,0-.8647-0.7256,2.9366,2.9366,0,0,0-.5338.0386v1.4365Zm-1.1665-2.24a10.3161,10.3161,0,0,1,1.5689-.1084,2.66,2.66,0,0,1,1.6841.41,1.3229,1.3229,0,0,1,.4785,1.0894,1.3816,1.3816,0,0,1-.92,1.2822v0.0234a1.3119,1.3119,0,0,1,.6954.9727c0.1626,0.5874.3246,1.2671,0.4247,1.4683h-1.205a6.558,6.558,0,0,1-.3629-1.2129,0.7967,0.7967,0,0,0-.8417-0.8345h-0.356v2.0474H24.01V44.9183" transform="translate(0 0.0036)"/><path id="path32" class="cls-1" d="M30.0733,44.8489v2.9966c0,0.8965.34,1.352,0.9424,1.352,0.6181,0,.958-0.4326.958-1.352V44.8489h1.1739v2.92c0,1.6064-.8111,2.3711-2.17,2.3711-1.3134,0-2.0854-.7256-2.0854-2.3867V44.8489h1.1816" transform="translate(0 0.0036)"/><path id="path34" class="cls-1" d="M35.6826,44.8489v2.0005h1.9385V44.8489h1.1738v5.2066H37.6211V47.8768H35.6826v2.1787H34.5V44.8489h1.1826" transform="translate(0 0.0036)"/><path id="path36" class="cls-1" d="M43.2666,47.8538h-1.915V49.09h2.14v0.9658H40.169V44.8489h3.2139v0.9654H41.3516v1.0815h1.915v0.958" transform="translate(0 0.0036)"/><path id="path38" class="cls-1" d="M45.8355,47.1585h0.4639a0.7919,0.7919,0,0,0,.9345-0.75,0.73,0.73,0,0,0-.8647-0.7256,2.9289,2.9289,0,0,0-.5336.0386v1.4365Zm-1.1661-2.24a10.3164,10.3164,0,0,1,1.5684-.1084,2.66,2.66,0,0,1,1.6841.41A1.3226,1.3226,0,0,1,48.4,46.3089a1.3815,1.3815,0,0,1-.9194,1.2822v0.0234a1.3118,1.3118,0,0,1,.6953.9727c0.1626,0.5874.3247,1.2671,0.4249,1.4683H47.3965a6.4959,6.4959,0,0,1-.3633-1.2129,0.7968,0.7968,0,0,0-.8419-0.8345H45.8355v2.0474H44.6694V44.9183" transform="translate(0 0.0036)"/><path id="path40" class="cls-1" d="M3.0982,55.2337H1.1826V56.47h2.14v0.9653H0V52.2288H3.2144v0.9653H1.1826v1.0816H3.0981v0.958" transform="translate(0 0.0036)"/><path id="path42" class="cls-1" d="M4.501,57.4349V52.2288H5.876l1.0816,1.9077a15.0734,15.0734,0,0,1,.85,1.7842H7.83a19.4527,19.4527,0,0,1-.1-2.17V52.2288H8.811v5.2061H7.5757L6.4629,55.4266a19.5364,19.5364,0,0,1-.9038-1.8389l-0.0234.0083c0.0313,0.687.0464,1.4214,0.0464,2.271v1.5679H4.501" transform="translate(0 0.0036)"/><path id="path44" class="cls-1" d="M10.9824,53.2176H9.5845V52.2288H13.586v0.9888H12.1646v4.2173H10.9824V53.2176" transform="translate(0 0.0036)"/><path id="path46" class="cls-1" d="M15.3706,57.4349l-1.2364-5.2061h1.2592l0.3941,2.147c0.1158,0.6182.2236,1.2905,0.309,1.8154h0.0152c0.0849-.564.2089-1.19,0.34-1.8306l0.44-2.1318h1.251L18.56,54.4222c0.1162,0.61.2013,1.1665,0.2789,1.7456h0.0151c0.0766-.5791.1929-1.1894,0.3008-1.8071L19.58,52.2288h1.1978l-1.3442,5.2061H18.1591l-0.4409-2.24c-0.1-.5254-0.1845-1.0122-0.247-1.6074H17.456c-0.0928.5874-.1776,1.082-0.3018,1.6074l-0.4941,2.24h-1.29" transform="translate(0 0.0036)"/><path id="path48" class="cls-1" d="M21.6939,57.4349H22.876v-5.206H21.6939v5.206Z" transform="translate(0 0.0036)"/><path id="path50" class="cls-1" d="M27.75,57.2884a3.3572,3.3572,0,0,1-1.3359.2241,2.4766,2.4766,0,0,1-2.7271-2.6035,2.6543,2.6543,0,0,1,2.8423-2.7656,3.0623,3.0623,0,0,1,1.2822.2319l-0.2393.9351a2.5258,2.5258,0,0,0-.9888-0.1934,1.7116,1.7116,0,0,0,.0082,3.4219,2.9362,2.9362,0,0,0,.98-0.17l0.1777,0.9194" transform="translate(0 0.0036)"/><path id="path52" class="cls-1" d="M28.81,52.2288h1.1661v2.3017h0.0234c0.1157-.2012.24-0.3867,0.356-0.5718l1.1816-1.73h1.4444l-1.7232,2.2168,1.816,2.9893h-1.375l-1.2749-2.2481-0.4482.5488v1.6992H28.81V52.2288" transform="translate(0 0.0036)"/><path id="path54" class="cls-1" d="M33.9116,52.2288h1.1826v4.2173h2.07v0.9888H33.9116V52.2288" transform="translate(0 0.0036)"/><path id="path56" class="cls-1" d="M41.2134,55.2337h-1.915V56.47h2.14v0.9653H38.1157V52.2288H41.33v0.9653H39.2984v1.0816h1.915v0.958" transform="translate(0 0.0036)"/><path id="path58" class="cls-1" d="M43.7832,54.5384h0.4639a0.7919,0.7919,0,0,0,.934-0.75,0.7309,0.7309,0,0,0-.8647-0.7261,2.9693,2.9693,0,0,0-.5331.0386v1.437Zm-1.1665-2.24A10.3112,10.3112,0,0,1,44.185,52.19a2.6594,2.6594,0,0,1,1.6841.4092,1.3221,1.3221,0,0,1,.4785,1.09,1.3823,1.3823,0,0,1-.9189,1.2822V54.994a1.3131,1.3131,0,0,1,.6948.9731c0.1626,0.5874.3247,1.2671,0.4249,1.4678H45.3437a6.4863,6.4863,0,0,1-.3633-1.2124,0.7968,0.7968,0,0,0-.8419-0.8345H43.7832v2.0469H42.6167V52.2982" transform="translate(0 0.0036)"/><path id="path60" class="cls-1" d="M48.5571,53.2176H47.1587V52.2288H51.16v0.9888H49.7388v4.2173H48.5571V53.2176" transform="translate(0 0.0036)"/><path id="path62" class="cls-1" d="M54.2154,55.2181L53.89,54.1136c-0.0923-.3091-0.185-0.6953-0.2622-1.0044h-0.016c-0.0768.3091-.1544,0.7026-0.2394,1.0044L53.064,55.2181h1.1514Zm-1.3219.88-0.37,1.3364H51.3028l1.5908-5.2061H54.439l1.6147,5.2061H54.7866l-0.4019-1.3364H52.8935" transform="translate(0 0.0036)"/><path id="path64" class="cls-1" d="M61.2021,57.1956a5.8245,5.8245,0,0,1-1.7378.2935,2.9037,2.9037,0,0,1-2.1172-.7031,2.52,2.52,0,0,1-.7334-1.8926,2.6872,2.6872,0,0,1,2.9741-2.7188,3.5764,3.5764,0,0,1,1.4444.2549l-0.2476.9424a2.8746,2.8746,0,0,0-1.2124-.2241,1.6963,1.6963,0,1,0,.4941,3.314V55.3729H59.2631V54.4534h1.939v2.7422" transform="translate(0 0.0036)"/></g></g></svg>